# xmcd
#
# Track frame offsets:
#	150
#	14589
#	27491
#	43134
#	60187
#	74431
#	89201
#	100197
#	113057
#	127079
#	143081
#	155792
#	167876
#	177906
#	194376
#	209689
#	223278
#	236048
#	245307
#	262727
#	278117
#	291492
#	306010
#	319326
#	333102
#
# Disc length: 4624 seconds
#
# Revision: 0
# Processed by: cddbd v1.5.2PL0 Copyright (c) Steve Scherf et al.
# Submitted via: EZCDAudioConverter 1.0.8.1
#
DISCID=8a120e19
DTITLE=Víctor Yturbe - 50 Exitos 2
DYEAR=2004
DGENRE=Balada
TTITLE0=Miénteme
TTITLE1=Yo lo comprendo
TTITLE2=Mi segundo amor
TTITLE3=Nuestro juramento
TTITLE4=Que sea feliz
TTITLE5=Verdad amarga
TTITLE6=Nadie, simplemente nadie
TTITLE7=Mentira, mentira
TTITLE8=Señora
TTITLE9=Mucho corazón
TTITLE10=Historia de un amor
TTITLE11=Sentencia
TTITLE12=Esta tristeza mía
TTITLE13=Amor barato
TTITLE14=Falsa
TTITLE15=Confidencias de amor
TTITLE16=Qué sabes tú?
TTITLE17=Ave negra
TTITLE18=Desahogo
TTITLE19=Mi destino fue quererte
TTITLE20=Me regalo contigo
TTITLE21=Di que no es verdad
TTITLE22=Bajo un palmar
TTITLE23=Mil besos
TTITLE24=Me quedé con las ganas
EXTD=
EXTT0=
EXTT1=
EXTT2=
EXTT3=
EXTT4=
EXTT5=
EXTT6=
EXTT7=
EXTT8=
EXTT9=
EXTT10=
EXTT11=
EXTT12=
EXTT13=
EXTT14=
EXTT15=
EXTT16=
EXTT17=
EXTT18=
EXTT19=
EXTT20=
EXTT21=
EXTT22=
EXTT23=
EXTT24=
PLAYORDER=
